<svg width="20" height="20" viewBox="0 0 20 20" fill="none" xmlns="http://www.w3.org/2000/svg">
<g clip-path="url(#clip0_48_143)">
<path d="M19.8052 10.2305C19.8052 9.55068 19.7501 8.86724 19.6325 8.19849H10.2002V12.0493H15.6016C15.3775 13.2913 14.6573 14.3899 13.6027 15.0881V17.5867H16.8252C18.7176 15.845 19.8052 13.2729 19.8052 10.2305Z" fill="#4285F4"/>
<path d="M10.1999 20.0008C12.897 20.0008 15.1714 19.1152 16.8286 17.5867L13.6061 15.088C12.7096 15.698 11.5521 16.0434 10.2036 16.0434C7.59474 16.0434 5.38272 14.2833 4.58904 11.917H1.26367V14.4928C2.96127 17.8696 6.41892 20.0008 10.1999 20.0008V20.0008Z" fill="#34A853"/>
<path d="M4.58564 11.917C4.16676 10.675 4.16676 9.3302 4.58564 8.08824V5.51245H1.26395C-0.154389 8.3381 -0.154389 11.6671 1.26395 14.4928L4.58564 11.917V11.917Z" fill="#FBBC04"/>
<path d="M10.1999 3.95805C11.6256 3.936 13.0035 4.47247 14.036 5.45722L16.8911 2.60218C15.0833 0.904587 12.6838 -0.0287217 10.1999 0.000673888C6.41892 0.000673888 2.96127 2.13185 1.26367 5.51234L4.58537 8.08813C5.37538 5.71811 7.59107 3.95805 10.1999 3.95805V3.95805Z" fill="#EA4335"/>
</g>
<defs>
<clipPath id="clip0_48_143">
<rect width="20" height="20" fill="white"/>
</clipPath>
</defs>
</svg>
